<?xml version="1.0" standalone="no"?>
<!DOCTYPE svg PUBLIC "-//W3C//DTD SVG 20010904//EN"
 "http://www.w3.org/TR/2001/REC-SVG-20010904/DTD/svg10.dtd">
<svg version="1.0" xmlns="http://www.w3.org/2000/svg"
 width="128.000000pt" height="128.000000pt" viewBox="0 0 128.000000 128.000000"
 preserveAspectRatio="xMidYMid meet">
<metadata>
Created by potrace 1.14, written by Peter Selinger 2001-2017
</metadata>
<g transform="translate(0.000000,128.000000) scale(0.100000,-0.100000)"
fill="#000000" stroke="none">
<path d="M108 1265 c-15 -8 -30 -24 -33 -35 -5 -15 -9 -956 -5 -1145 0 -20 6
-20 283 -19 155 1 286 2 290 3 5 0 -2 14 -15 30 -20 26 -30 30 -75 30 l-53 1
0 74 c0 86 -16 114 -67 120 -24 2 -40 -3 -58 -20 -22 -21 -25 -31 -25 -99 l0
-75 -109 0 -110 0 0 535 c0 404 3 536 12 542 7 4 135 8 285 8 238 0 275 -2
282 -15 5 -9 8 -143 8 -299 0 -155 2 -285 5 -287 3 -3 19 2 36 10 20 11 28 21
25 31 -4 10 0 15 12 16 11 0 100 1 199 2 l179 2 1 237 0 238 -197 0 -197 0 1
28 c1 44 -12 71 -42 87 -42 22 -592 21 -632 0z m718 -353 c1 -172 1 -172 -21
-172 -22 0 -22 0 -20 168 1 92 3 170 3 174 1 3 10 5 20 4 15 -3 17 -19 18
-174z m277 169 c4 0 7 -77 7 -171 l0 -170 -27 -1 c-60 -1 -129 -1 -160 0 l-33
1 0 168 c0 93 2 171 4 173 4 4 187 4 209 0z m-666 -891 c-1 -76 -21 -75 -23 1
-1 58 3 72 16 64 4 -3 7 -32 7 -65z"/>
<path d="M938 993 c-4 -7 -3 -102 1 -156 0 -10 5 -15 11 -12 5 3 8 23 7 43
l-2 37 45 0 45 0 -1 -37 c-1 -24 3 -38 11 -38 9 0 12 23 11 83 -1 48 -6 81
-11 80 -6 -2 -11 -12 -11 -23 -1 -11 -2 -24 -3 -30 -1 -11 -81 -14 -82 -2 0 4
-2 17 -3 29 -3 26 -12 38 -18 26z"/>
<path d="M216 1134 c-9 -8 -16 -25 -17 -37 -1 -25 -1 -135 0 -154 1 -14 100
-19 102 -5 1 4 3 44 5 90 3 72 0 86 -16 102 -24 24 -53 26 -74 4z"/>
<path d="M387 1132 c-13 -15 -17 -39 -17 -111 l0 -92 53 3 52 3 3 89 c2 72 0
92 -14 107 -22 24 -56 24 -77 1z"/>
<path d="M562 1132 c-14 -14 -18 -34 -17 -107 l0 -90 53 -3 c59 -3 54 -13 54
113 0 76 1 71 -18 89 -20 21 -50 20 -72 -2z"/>
<path d="M216 874 c-16 -15 -17 -26 -18 -139 l-1 -60 54 0 54 0 1 89 c1 74 -2
92 -18 108 -22 22 -51 23 -72 2z"/>
<path d="M392 874 c-20 -14 -22 -23 -22 -110 l0 -94 55 1 55 2 0 92 c0 76 -3
95 -18 108 -23 21 -41 21 -70 1z"/>
<path d="M566 877 c-15 -11 -19 -30 -21 -100 -1 -47 1 -90 4 -96 4 -6 29 -10
55 -8 l49 2 0 65 c-1 109 -2 118 -19 134 -19 19 -44 20 -68 3z"/>
<path d="M216 611 c-13 -15 -18 -37 -18 -88 0 -125 -5 -114 54 -111 l53 3 1
89 c1 74 -2 92 -17 107 -24 24 -51 24 -73 0z"/>
<path d="M390 610 c-17 -17 -20 -33 -20 -110 l0 -90 55 0 55 0 0 93 c0 78 -3
97 -18 110 -25 22 -48 21 -72 -3z"/>
<path d="M566 617 c-15 -11 -19 -30 -21 -100 -2 -76 9 -130 21 -102 2 6 19 34
37 64 58 97 57 93 45 115 -20 38 -50 46 -82 23z"/>
<path d="M825 606 c-226 -64 -305 -341 -144 -507 68 -70 124 -94 224 -94 94 0
150 22 214 86 56 56 85 120 89 201 6 91 -17 154 -79 222 -79 86 -198 122 -304
92z m157 -66 c54 -15 125 -85 147 -145 59 -159 -56 -328 -224 -328 -88 1 -180
57 -221 135 -25 48 -29 128 -10 186 41 123 174 189 308 152z"/>
<path d="M832 472 c-29 -4 -92 -66 -93 -92 -5 -68 0 -87 27 -119 30 -37 93
-57 132 -43 24 9 32 5 74 -36 31 -29 52 -43 62 -39 34 13 29 38 -14 82 -39 39
-42 46 -33 72 36 103 -44 193 -155 175z m78 -82 c24 -24 26 -57 4 -88 -31 -45
-114 -14 -114 43 0 14 9 34 20 45 11 11 31 20 45 20 14 0 34 -9 45 -20z"/>
</g>
</svg>
